<svg xmlns="http://www.w3.org/2000/svg" xmlns:xlink="http://www.w3.org/1999/xlink" role="img" version="1.1" x="0px" y="0px" viewBox="0 0 133 133" width="133px" height="133px" xml:space="preserve">
<circle style="fill:#F2F3F3;" cx="66.5" cy="66.5" r="66.5"/>
<path style="fill:none;stroke:#E2E2E2;stroke-width:3;" d="M87.1,66c0,0,5.4,31.4-18.3,31.4c-26.1,0-21.5-29.9-21.5-29.9"/>
<path style="fill:none;stroke:#E2E2E2;stroke-width:3;" d="M89.9,67c0,0,5.2,1.5,3.9,7.8C92.8,79.5,87,81,87,81l0.9-6.2L87,67H89.9z  "/>
<path style="fill:none;stroke:#E2E2E2;stroke-width:3;" d="M44.1,67c0,0-5.2,1.5-3.9,7.8c1,4.7,6.8,6.2,6.8,6.2l-0.9-6.2L47,67H44.1  z"/>
<path style="fill:#E2E2E2;" d="M61,70c0,1.1-0.9,2-2,2s-2-0.9-2-2s0.9-2,2-2S61,68.9,61,70"/>
<path style="fill:#E2E2E2;" d="M78,70c0,1.1-0.9,2-2,2s-2-0.9-2-2s0.9-2,2-2S78,68.9,78,70"/>
<path style="fill:none;stroke:#E2E2E2;stroke-width:3;" d="M53.4,51.8c0,0,1.1,7-5.9,15.6C45,62,41,46.8,52.1,47.3  c2-9.1,10.7-11.8,19-10.7c8.2,1.1,19.6,6,19.3,15.9c-0.2,8.2-3.1,13-3.1,13l-1.3-7.2C85.9,58.3,69.8,63.7,53.4,51.8z"/>
<path style="fill:none;stroke:#E2E2E2;stroke-width:3;" d="M77,79H58c0,0,1,9,9.5,9C76,88,77,79,77,79z"/>
</svg>